<mxfile host="app.diagrams.net" modified="2023-09-19T05:26:15.505Z" agent="Mozilla/5.0 (Macintosh; Intel Mac OS X 10_15_7) AppleWebKit/537.36 (KHTML, like Gecko) Chrome/117.0.0.0 Safari/537.36 Edg/117.0.2045.31" version="21.7.5" etag="orl2EVwlvGehmf1qjQC9" type="github">
  <diagram name="第 1 页" id="-8Sm8y8GeaGWHikvhR0Z">
    <mxGraphModel>
      <root>
        <mxCell id="0" />
        <mxCell id="1" parent="0" />
      </root>
    </mxGraphModel>
  </diagram>
</mxfile>
